<?xml version="1.0" encoding="UTF-8"?>
<svg version="1.1" xmlns="http://www.w3.org/2000/svg" width="875" height="875">
<path d="M0 0 C163.02 0 326.04 0 494 0 C494 1.98 494 3.96 494 6 C251.945 6.495 251.945 6.495 5 7 C2.36 17.23 -0.28 27.46 -3 38 C-4.90815703 44.39027558 -6.8352558 50.73904338 -8.9375 57.0625 C-9.19112305 57.83396362 -9.44474609 58.60542725 -9.70605469 59.40026855 C-13.91232008 72.17647311 -18.4358043 84.74293637 -24 97 C-24.44279297 97.97759277 -24.88558594 98.95518555 -25.34179688 99.96240234 C-47.21356035 147.76375647 -76.76453753 192.95235472 -112.59521484 231.47753906 C-114.02100927 233.02276917 -115.42818561 234.58325797 -116.83203125 236.1484375 C-128.55755157 249.15986776 -141.54256691 260.81168334 -155 272 C-155.5765332 272.48146484 -156.15306641 272.96292969 -156.74707031 273.45898438 C-181.18213147 293.76054933 -208.44582045 310.32618087 -236 326 C-237.38421143 326.79301514 -237.38421143 326.79301514 -238.79638672 327.60205078 C-267.31793863 343.8745829 -312.169289 368 -346 368 C-346 525.74 -346 683.48 -346 846 C-347.98 846 -349.96 846 -352 846 C-352 686.94 -352 527.88 -352 364 C-343.04896935 360.64336351 -343.04896935 360.64336351 -338.98046875 359.59765625 C-311.8158648 352.40821295 -285.16677301 343.59229825 -260 331 C-259.07960938 330.5472168 -258.15921875 330.09443359 -257.2109375 329.62792969 C-241.6827038 321.95572787 -226.90452538 313.1236837 -212.20703125 303.99072266 C-209.33180091 302.20596107 -206.44863013 300.43502031 -203.5625 298.66796875 C-193.92324684 292.72481266 -184.76558048 286.34516462 -175.81835938 279.40527344 C-174.09216153 278.07122473 -172.35391083 276.75524825 -170.609375 275.4453125 C-162.44719863 269.2934522 -154.66594844 262.7557735 -147 256 C-145.59041016 254.76056641 -145.59041016 254.76056641 -144.15234375 253.49609375 C-137.4559654 247.47782966 -131.06491497 241.16558695 -124.6875 234.8125 C-123.41495361 233.54696289 -123.41495361 233.54696289 -122.11669922 232.25585938 C-117.20501732 227.33160574 -112.49474352 222.30707091 -108 217 C-107.45786865 216.36457275 -106.9157373 215.72914551 -106.35717773 215.07446289 C-87.41210014 192.72977921 -70.61861412 168.3823835 -56 143 C-55.54705566 142.22124512 -55.09411133 141.44249023 -54.62744141 140.64013672 C-51.03171909 134.45625207 -47.49914046 128.23897802 -44 122 C-43.34813721 120.84854492 -43.34813721 120.84854492 -42.68310547 119.67382812 C-23.55180193 85.67258994 -12.26521702 47.61177237 -2.77099609 9.96142578 C-1.9026455 6.6260576 -0.94684037 3.3139413 0 0 Z " fill="#000000" transform="translate(381,29)"/>
<path d="M0 0 C144.87 0 289.74 0 439 0 C439 1.98 439 3.96 439 6 C295.45 6 151.9 6 4 6 C3.67 7.65 3.34 9.3 3 11 C1.51061502 15.91212497 -0.15311533 20.76801141 -1.8125 25.625 C-2.05443085 26.33329956 -2.29636169 27.04159912 -2.54562378 27.7713623 C-7.52315967 42.24873111 -13.4331428 56.1648826 -20 70 C-20.42104004 70.8957373 -20.84208008 71.79147461 -21.27587891 72.71435547 C-27.53747562 85.95121457 -34.79640827 98.55930869 -42.29345703 111.12939453 C-43.86584133 113.77432937 -45.41870013 116.42951334 -46.96484375 119.08984375 C-61.27642341 143.55921412 -77.61550602 167.39348131 -96 189 C-96.46116211 189.54462891 -96.92232422 190.08925781 -97.39746094 190.65039062 C-103.16981688 197.46304754 -109.01435034 204.19849266 -115.02734375 210.80078125 C-116.88329645 212.86989288 -118.66463259 214.9847432 -120.4375 217.125 C-121.283125 218.07375 -122.12875 219.0225 -123 220 C-123.66 220 -124.32 220 -125 220 C-125.20625 220.53625 -125.4125 221.0725 -125.625 221.625 C-127.53250426 224.91978009 -130.04819384 227.59363628 -133 230 C-133.66 230 -134.32 230 -135 230 C-135 230.66 -135 231.32 -135 232 C-136.29296875 233.3046875 -136.29296875 233.3046875 -138.1875 234.875 C-141.37724523 237.57703375 -144.46131251 240.35251556 -147.5 243.22070312 C-154.07836542 249.41164077 -160.94347709 255.05288412 -168.11474609 260.53857422 C-170.04231182 262.03279961 -171.93874465 263.56028279 -173.83203125 265.09765625 C-203.66293432 289.13337249 -237.4584438 308.69245737 -271 327 C-271.86447754 327.47550293 -272.72895508 327.95100586 -273.61962891 328.44091797 C-292.11816172 338.58667681 -311.05106794 345.74584289 -331 353 C-331.33 492.92 -331.66 632.84 -332 777 C-333.98 777 -335.96 777 -338 777 C-338 635.76 -338 494.52 -338 349 C-327.91597919 344.51821297 -327.91597919 344.51821297 -323.57421875 342.95703125 C-322.62337402 342.61051514 -321.6725293 342.26399902 -320.69287109 341.90698242 C-319.70109863 341.54580322 -318.70932617 341.18462402 -317.6875 340.8125 C-288.68325494 330.04540213 -262.42411875 314.94335972 -236 299 C-235.04673828 298.42604492 -234.09347656 297.85208984 -233.11132812 297.26074219 C-215.15814496 286.41536988 -197.55698793 274.89579482 -181 262 C-179.88808456 261.14444843 -178.77610184 260.28898428 -177.6640625 259.43359375 C-160.45949237 246.12773755 -144.52429551 231.59335135 -129.125 216.25 C-127.78683228 214.91884155 -127.78683228 214.91884155 -126.42163086 213.56079102 C-121.40740449 208.53432909 -116.59870154 203.40823847 -112 198 C-111.12281127 196.99052427 -110.24523573 195.98138447 -109.3671875 194.97265625 C-101.89138115 186.24307047 -94.89544577 177.19248709 -88 168 C-87.53094238 167.37899414 -87.06188477 166.75798828 -86.57861328 166.11816406 C-48.1097785 115.11267265 -21.54685409 60.02337925 0 0 Z " fill="#000000" transform="translate(436,98)"/>
<path d="M0 0 C8.75645474 8.12912664 14.56626709 18.53609612 15.640625 30.56640625 C15.81207045 47.79667397 9.98133245 60.55926636 -1.859375 73.12890625 C-17.30642667 87.70360376 -36.35856081 94.29050249 -57.3828125 94.0390625 C-63.96847077 93.80514568 -70.30614547 92.34690023 -76.6953125 90.8046875 C-60.07566439 103.53799204 -43.14863127 109.86383015 -22.0078125 107.1796875 C-12.27739606 105.36881595 -3.96078079 102.16767275 3.6484375 95.83203125 C5.3046875 94.8046875 5.3046875 94.8046875 8.3046875 95.4296875 C9.2946875 96.1103125 9.2946875 96.1103125 10.3046875 96.8046875 C9.90030805 105.70103538 5.18001007 114.2609796 -0.6953125 120.8046875 C-3.2734375 122.82421875 -3.2734375 122.82421875 -5.9453125 124.6171875 C-6.83734375 125.22175781 -7.729375 125.82632813 -8.6484375 126.44921875 C-9.32390625 126.89652344 -9.999375 127.34382812 -10.6953125 127.8046875 C-10.2828125 128.21976563 -9.8703125 128.63484375 -9.4453125 129.0625 C-0.57292563 138.52901992 8.18514299 152.60446038 8.6796875 165.9296875 C8.3046875 168.8046875 8.3046875 168.8046875 6.3046875 170.8046875 C-8.52191168 173.4890823 -25.6785024 164.81589423 -37.6953125 156.8046875 C-37.7365625 157.6090625 -37.7778125 158.4134375 -37.8203125 159.2421875 C-40.43834922 169.90133701 -49.08698174 176.31270797 -58.0078125 181.8671875 C-61.04850583 182.92789447 -62.66110333 182.78634341 -65.6953125 181.8046875 C-65.33494316 177.57034777 -64.59678871 174.33421215 -62.7578125 170.4921875 C-56.11690863 156.17198388 -57.8916013 140.21582111 -62.76171875 125.60546875 C-67.14054735 114.31878513 -73.93599748 106.02771793 -82.6953125 97.8046875 C-82.27378906 99.03445312 -81.85226563 100.26421875 -81.41796875 101.53125 C-80.86434171 103.16398059 -80.31096975 104.79679769 -79.7578125 106.4296875 C-79.48001953 107.23792969 -79.20222656 108.04617187 -78.91601562 108.87890625 C-72.73824628 127.18892143 -74.54011329 146.96517976 -83.0078125 164.2421875 C-86.0546118 169.94765881 -89.40154549 174.97533433 -93.6953125 179.8046875 C-94.31535156 180.55234375 -94.93539062 181.3 -95.57421875 182.0703125 C-103.42718063 190.83225099 -115.2917324 197.30527474 -127.11328125 198.0078125 C-141.47035491 198.18634606 -152.99808705 194.74320156 -163.7734375 184.89453125 C-171.6049522 176.3785549 -175.21697375 167.61188975 -175.0078125 156.12109375 C-173.97521192 145.16262014 -167.21773816 136.23357588 -158.9609375 129.34765625 C-152.41661962 124.89075011 -144.57559784 122.50498766 -136.6953125 123.8046875 C-128.48621002 125.74152262 -123.45754588 129.92971269 -118.6953125 136.8046875 C-115.24042004 142.69080058 -114.83613584 149.1167783 -115.6953125 155.8046875 C-117.48669021 161.99986873 -121.30292988 166.37317129 -126.6953125 169.8046875 C-132.94274877 172.98646731 -138.89894629 173.50667359 -145.6953125 171.8046875 C-150.01744209 169.56358327 -153.20663812 167.01629029 -155.6953125 162.8046875 C-156.27584722 159.83685182 -156.08953121 157.90915981 -155.6953125 154.8046875 C-153.6953125 152.3046875 -153.6953125 152.3046875 -151.6953125 150.8046875 C-149.7578125 151.5546875 -149.7578125 151.5546875 -147.6953125 152.8046875 C-146.62647335 155.29864552 -146.70317479 157.1978021 -146.7578125 159.9296875 C-147.02396905 162.93707862 -147.02396905 162.93707862 -144.6953125 164.8046875 C-139.31176833 166.29018828 -134.52870506 166.04583208 -129.421875 163.828125 C-125.71850521 161.63291485 -124.02363532 158.78965596 -122.6953125 154.8046875 C-121.88003382 148.14880583 -122.94934453 142.42363946 -126.6953125 136.8046875 C-131.46520774 132.25160568 -136.41381391 130.29836207 -143.02734375 130.40625 C-150.47150723 131.51796988 -157.01618653 135.39550529 -161.7578125 141.1796875 C-166.92334347 148.73900112 -168.8516548 155.60651011 -167.6953125 164.8046875 C-165.10162681 174.37662277 -158.27426132 181.45091365 -149.9921875 186.55078125 C-140.82675759 191.55435778 -130.87191311 192.34449453 -120.63671875 190.1484375 C-107.13669672 185.70587706 -97.06094156 175.84455967 -90.078125 163.69140625 C-82.44197893 147.75041206 -79.84692043 129.34466112 -84.52734375 112.1171875 C-88.35972238 101.24810029 -93.88578382 86.26362537 -103.66796875 79.42578125 C-106.32483726 78.61182731 -107.37915496 79.17370923 -109.8828125 80.3046875 C-114.97583798 82.18106531 -118.69923391 81.8746259 -123.6953125 79.8046875 C-128.20545107 77.17131683 -131.01651961 73.74779989 -132.6953125 68.8046875 C-133.61542233 61.9436216 -132.81410921 57.370629 -128.6953125 51.8046875 C-125.06178467 48.17115967 -121.73564671 46.74441083 -116.6953125 45.8046875 C-110.62050972 45.8046875 -107.08449092 47.20040472 -102.39453125 51.0703125 C-98.77028359 54.7695446 -97.56561284 58.81612558 -97.3828125 63.8671875 C-97.67436773 67.54078344 -98.33293131 70.39873452 -99.6953125 73.8046875 C-99.01984375 74.06507812 -98.344375 74.32546875 -97.6484375 74.59375 C-94.86536221 75.73495812 -92.15523454 76.99251311 -89.43164062 78.26733398 C-70.00392691 87.19080574 -50.23892684 90.02468807 -29.6953125 82.8046875 C-14.10463033 76.73981325 -0.60974629 65.21613799 6.2421875 49.7421875 C9.84704928 39.53637021 9.93764537 28.2935652 5.62109375 18.26171875 C0.43539213 8.58276825 -7.22916218 1.45223125 -17.6953125 -2.1953125 C-25.1000275 -4.06390045 -32.15559045 -3.23890559 -38.8203125 0.5234375 C-45.49344595 5.08341203 -50.22474986 11.06359123 -52.6953125 18.8046875 C-53.54844929 25.24790158 -53.65950204 31.3869618 -49.6953125 36.8046875 C-44.68838151 41.70035336 -40.24786886 43.79064866 -33.3203125 44.2421875 C-28.14475487 44.10230756 -24.4802491 42.29711143 -20.6953125 38.8046875 C-17.50414484 33.87288294 -17.30040606 29.71057536 -18.13671875 24.0546875 C-18.63059988 21.64422861 -18.63059988 21.64422861 -20.1953125 19.1171875 C-23.58350762 17.33838506 -25.90874838 17.95326483 -29.57421875 18.73828125 C-31.6953125 18.8046875 -31.6953125 18.8046875 -33.47265625 17.33984375 C-33.87613281 16.83324219 -34.27960938 16.32664062 -34.6953125 15.8046875 C-32.9453125 10.9296875 -32.9453125 10.9296875 -30.6953125 9.8046875 C-26.10732778 9.24495336 -22.59555021 9.38004707 -18.3828125 11.3671875 C-12.64241694 16.57359277 -11.00949598 21.51828217 -10.60546875 29.1015625 C-10.83921743 36.13434892 -14.00605574 41.05386283 -18.75 46.10546875 C-23.78707047 50.50531946 -29.56054919 51.37193331 -36.10546875 51.16015625 C-42.61527556 50.26665336 -49.0902934 47.54127858 -53.6953125 42.8046875 C-59.34274525 34.87253836 -60.47487968 28.54927724 -59.6953125 18.8046875 C-57.36850538 8.89473188 -50.93059074 0.76675001 -42.66796875 -4.98046875 C-28.36011944 -13.79183734 -12.48695555 -10.17053481 0 0 Z M-125.4453125 56.5546875 C-127.20004829 59.71321192 -127.5709527 62.19825331 -127.6953125 65.8046875 C-126.39871076 69.69449271 -125.05057573 71.49786926 -121.9453125 74.1796875 C-118.08449945 76.11009402 -115.96099264 76.41407038 -111.6953125 75.8046875 C-107.99141229 73.77802512 -106.04168239 72.32424234 -103.6953125 68.8046875 C-102.99610365 64.00778959 -102.98049165 60.03009468 -105.4453125 55.8046875 C-108.83198561 52.7943114 -110.56342089 51.90758674 -115.1328125 51.4921875 C-119.80183701 51.90175105 -122.1722333 53.2816083 -125.4453125 56.5546875 Z M0.3046875 105.8046875 C-0.85546875 106.31128906 -0.85546875 106.31128906 -2.0390625 106.828125 C-3.080625 107.27414063 -4.1221875 107.72015625 -5.1953125 108.1796875 C-6.21625 108.62054688 -7.2371875 109.06140625 -8.2890625 109.515625 C-24.66316481 115.71224629 -43.4664196 115.22100182 -59.6328125 108.5546875 C-60.38433594 108.19890625 -61.13585937 107.843125 -61.91015625 107.4765625 C-62.49925781 107.25484375 -63.08835937 107.033125 -63.6953125 106.8046875 C-64.6853125 107.2996875 -64.6853125 107.2996875 -65.6953125 107.8046875 C-64.9734375 108.8771875 -64.2515625 109.9496875 -63.5078125 111.0546875 C-52.76190189 128.43688285 -50.91450714 147.10034426 -54.6953125 166.8046875 C-55.03317926 168.80392665 -55.36772352 170.80373858 -55.6953125 172.8046875 C-48.06145899 166.56465556 -43.97417242 161.55889853 -41.6953125 151.8046875 C-41.6953125 151.1446875 -41.6953125 150.4846875 -41.6953125 149.8046875 C-36.51349998 151.07879603 -32.59630835 152.85517786 -28.0078125 155.6796875 C-18.32331164 161.41534445 -8.99825205 164.35968988 2.3046875 164.8046875 C0.37468344 152.36688359 -5.50714391 142.25578866 -14.05053711 133.24316406 C-17.18564057 129.85034307 -18.37913463 127.42363374 -18.6953125 122.8046875 C-17.4578125 122.7428125 -17.4578125 122.7428125 -16.1953125 122.6796875 C-8.0840435 120.65187025 -3.1888189 114.51090539 1.3046875 107.8046875 C0.8096875 106.8146875 0.8096875 106.8146875 0.3046875 105.8046875 Z " fill="#000000" transform="translate(207.6953125,18.1953125)"/>
</svg>
